HIERARCHY
ROOT hip
{
  OFFSET 0 0 0
  CHANNELS 6 Xposition Yposition Zposition Zrotation Yrotation Xrotation
  JOINT abdomen
  {
    OFFSET 0 20.6881 -0.73152
    CHANNELS 3 Zrotation Xrotation Yrotation
    JOINT chest
    {
      OFFSET 0 11.7043 -0.48768
      CHANNELS 3 Zrotation Xrotation Yrotation
      JOINT neck
      {
        OFFSET 0 22.1894 -2.19456
        CHANNELS 3 Zrotation Xrotation Yrotation
        JOINT head
        {
          OFFSET -0.24384 7.07133 1.2192
          CHANNELS 3 Zrotation Xrotation Yrotation
          JOINT leftEye
          {
            OFFSET 4.14528 8.04674 8.04672
            CHANNELS 3 Zrotation Xrotation Yrotation
            End Site
            {
              OFFSET 1 0 0
            }
          }
          JOINT rightEye
          {
            OFFSET -3.6576 8.04674 8.04672
            CHANNELS 3 Zrotation Xrotation Yrotation
            End Site
            {
              OFFSET 1 0 0
            }
          }
        }
      }
      JOINT rCollar
      {
        OFFSET -2.68224 19.2634 -4.8768
        CHANNELS 3 Zrotation Xrotation Yrotation
        JOINT rShldr
        {
          OFFSET -8.77824 -1.95073 1.46304
          CHANNELS 3 Zrotation Xrotation Yrotation
          JOINT rForeArm
          {
            OFFSET -28.1742 -1.7115 0.48768
            CHANNELS 3 Zrotation Xrotation Yrotation
            JOINT rHand
            {
              OFFSET -22.5879 0.773209 7.07136
              CHANNELS 3 Zrotation Xrotation Yrotation
              JOINT rThumb1
              {
                OFFSET -1.2192 -0.487915 3.41376
                CHANNELS 3 Zrotation Xrotation Yrotation
                JOINT rThumb2
                {
                  OFFSET -3.37035 -0.52449 3.41376
                  CHANNELS 3 Zrotation Xrotation Yrotation
                  End Site
                  {
                    OFFSET -1.78271 -1.18214 1.43049
                  }
                }
              }
              JOINT rIndex1
              {
                OFFSET -7.75947 0.938293 5.60832
                CHANNELS 3 Zrotation Xrotation Yrotation
                JOINT rIndex2
                {
                  OFFSET -2.54057 -0.884171 1.56538
                  CHANNELS 3 Zrotation Xrotation Yrotation
                  End Site
                  {
                    OFFSET -1.62519 -0.234802 1.16502
                  }
                }
              }
              JOINT rMid1
              {
                OFFSET -8.24714 1.18213 3.41376
                CHANNELS 3 Zrotation Xrotation Yrotation
                JOINT rMid2
                {
                  OFFSET -3.10165 -0.590103 1.0647
                  CHANNELS 3 Zrotation Xrotation Yrotation
                  End Site
                  {
                    OFFSET -2.48547 -0.328903 0.83742
                  }
                }
              }
              JOINT rRing1
              {
                OFFSET -8.82822 0.546677 1.51678
                CHANNELS 3 Zrotation Xrotation Yrotation
                JOINT rRing2
                {
                  OFFSET -2.60934 -0.819778 -0.0198488
                  CHANNELS 3 Zrotation Xrotation Yrotation
                  End Site
                  {
                    OFFSET -2.33842 -0.294052 0.168128
                  }
                }
              }
              JOINT rPinky1
              {
                OFFSET -8.27202 -0.0477905 -0.4584
                CHANNELS 3 Zrotation Xrotation Yrotation
                JOINT rPinky2
                {
                  OFFSET -1.82734 -0.647385 -0.700984
                  CHANNELS 3 Zrotation Xrotation Yrotation
                  End Site
                  {
                    OFFSET -1.69225 -0.51767 -0.607171
                  }
                }
              }
            }
          }
        }
      }
      JOINT lCollar
      {
        OFFSET 2.68224 19.2634 -4.8768
        CHANNELS 3 Zrotation Xrotation Yrotation
        JOINT lShldr
        {
          OFFSET 8.77824 -1.95073 1.46304
          CHANNELS 3 Zrotation Xrotation Yrotation
          JOINT lForeArm
          {
            OFFSET 28.1742 -1.7115 0.48768
            CHANNELS 3 Zrotation Xrotation Yrotation
            JOINT lHand
            {
              OFFSET 22.5879 0.773209 7.07136
              CHANNELS 3 Zrotation Xrotation Yrotation
              JOINT lThumb1
              {
                OFFSET 1.2192 -0.487915 3.41376
                CHANNELS 3 Zrotation Xrotation Yrotation
                JOINT lThumb2
                {
                  OFFSET 3.37035 -0.52449 3.41376
                  CHANNELS 3 Zrotation Xrotation Yrotation
                  End Site
                  {
                    OFFSET 1.78271 -1.18214 1.43049
                  }
                }
              }
              JOINT lIndex1
              {
                OFFSET 7.75947 0.938293 5.60832
                CHANNELS 3 Zrotation Xrotation Yrotation
                JOINT lIndex2
                {
                  OFFSET 2.54057 -0.884171 1.56538
                  CHANNELS 3 Zrotation Xrotation Yrotation
                  End Site
                  {
                    OFFSET 1.62519 -0.234802 1.16502
                  }
                }
              }
              JOINT lMid1
              {
                OFFSET 8.24714 1.18213 3.41376
                CHANNELS 3 Zrotation Xrotation Yrotation
                JOINT lMid2
                {
                  OFFSET 3.10165 -0.590103 1.0647
                  CHANNELS 3 Zrotation Xrotation Yrotation
                  End Site
                  {
                    OFFSET 2.48547 -0.328903 0.83742
                  }
                }
              }
              JOINT lRing1
              {
                OFFSET 8.82822 0.546677 1.51678
                CHANNELS 3 Zrotation Xrotation Yrotation
                JOINT lRing2
                {
                  OFFSET 2.60934 -0.819778 -0.0198488
                  CHANNELS 3 Zrotation Xrotation Yrotation
                  End Site
                  {
                    OFFSET 2.33842 -0.294052 0.168128
                  }
                }
              }
              JOINT lPinky1
              {
                OFFSET 8.27202 -0.0477905 -0.4584
                CHANNELS 3 Zrotation Xrotation Yrotation
                JOINT lPinky2
                {
                  OFFSET 1.82734 -0.647385 -0.700984
                  CHANNELS 3 Zrotation Xrotation Yrotation
                  End Site
                  {
                    OFFSET 1.69225 -0.51767 -0.607171
                  }
                }
              }
            }
          }
        }
      }
    }
  }
  JOINT rButtock
  {
    OFFSET -8.77824 4.35084 1.2192
    CHANNELS 3 Zrotation Xrotation Yrotation
    JOINT rThigh
    {
      OFFSET 0 -1.70687 -2.19456
      CHANNELS 3 Zrotation Xrotation Yrotation
      JOINT rShin
      {
        OFFSET 0 -36.8199 0.73152
        CHANNELS 3 Zrotation Xrotation Yrotation
        JOINT rFoot
        {
          OFFSET 0.73152 -45.1104 -5.12064
          CHANNELS 3 Zrotation Xrotation Yrotation
          End Site
          {
            OFFSET -1.1221 -3.69964 12.103
          }
        }
      }
    }
  }
  JOINT lButtock
  {
    OFFSET 8.77824 4.35084 1.2192
    CHANNELS 3 Zrotation Xrotation Yrotation
    JOINT lThigh
    {
      OFFSET 0 -1.70687 -2.19456
      CHANNELS 3 Zrotation Xrotation Yrotation
      JOINT lShin
      {
        OFFSET 0 -36.8199 0.73152
        CHANNELS 3 Zrotation Xrotation Yrotation
        JOINT lFoot
        {
          OFFSET -0.73152 -45.1104 -5.12064
          CHANNELS 3 Zrotation Xrotation Yrotation
          End Site
          {
            OFFSET 1.1221 -3.69964 12.103
          }
        }
      }
    }
  }
}
MOTION
Frames:	4
Frame Time:	0.03333
0.01814980059862137 8.160213470458984 0.010148695670068264 -6.769571006298065 -3.863164186477661 -7.1372924745082855 6.592824161052704 13.567250221967697 8.053780496120453 6.458496451377869 -6.513746604323387 0.02775818109512329 -6.602148860692978 6.287307143211365 -0.38614287972450256 4.266717284917831 -10.593627914786339 -12.6908478140831 -8.66938702762127 -7.1710145473480225 0.5578954517841339 5.75920969247818 -6.299087405204773 0.365704782307148 -0.8013468235731125 0.012564137578010559 -0.9096235781908035 14.814189076423645 18.09681326150894 4.62570246309042 -10.671145096421242 -18.521752953529358 20.62579572200775 -9.956466481089592 -0.44008679687976837 0.9772003255784512 0.11076148599386215 2.3723508417606354 -0.5301252007484436 -6.040411815047264 3.853067010641098 -1.2193650752305984 -0.4046497866511345 -2.8789621219038963 0.8173288498073816 8.629423454403877 7.820445746183395 0.3096543252468109 3.012940138578415 1.6238872893154621 3.4470543265342712 0.5234813690185547 1.1028284579515457 1.593363918364048 -4.555465467274189 1.5828748047351837 2.933216169476509 4.99626774340868 -2.0712926611304283 -1.5535220503807068 -8.588245511054993 5.153158530592918 0.8106064796447754 2.1341177076101303 -5.998594164848328 4.129105880856514 4.169212616980076 6.716550439596176 -4.779027588665485 -29.578137695789337 13.477217853069305 -13.758954405784607 14.746848195791245 -12.594749629497528 -30.889644026756287 -5.683844983577728 -0.6395190954208374 -0.05133412778377533 1.60712331533432 -4.865661934018135 1.406970676034689 4.014821983873844 -6.220005825161934 0.8497610315680504 -5.5711885169148445 -2.1279627084732056 0.8410331234335899 -0.4721834510564804 4.5428188517689705 -0.6192191317677498 -5.225601643323898 -2.522611543536186 -2.924743741750717 -4.238402880728245 5.507546402513981 3.3001889660954475 -0.6788101047277451 -0.6211922317743301 3.814046233892441 -6.419981271028519 0.13758189976215363 1.8543384969234467 -7.750837057828903 2.063458263874054 -2.7593441493809223 -0.046667084097862244 -3.5989712923765182 -2.2275926917791367 1.6819820925593376 -2.9931025207042694 1.9978152215480804 -12.125173956155777 -14.402437806129456 -26.06447607278824 1.9389239698648453 35.032179057598114 8.499564975500107 -4.622855633497238 -9.415969178080559 3.2204975187778473 -1.8666860461235046 -3.8257406651973724 5.156261175870895 18.0003422498703 -19.095557928085327 1.418766863644123 10.123240873217583 25.554486215114594 -12.423115074634552 2.323904950171709 -7.735685259103775 2.6333941519260406
0.01567538408562541 51.08795166015625 0.21688907500356436 -28.168626129627228 -1.4614004082977772 0.6032415479421616 -7.080758213996887 11.392568796873093 4.320347718894482 2.0553070306777954 -6.715667322278023 4.623431973159313 6.588858515024185 19.83753740787506 -0.5509619414806366 7.361604943871498 -23.6908096075058 -17.047374844551086 11.126113459467888 -6.446401029825211 1.0852157324552536 15.362958312034607 -11.09920620918274 5.319165475666523 5.100239887833595 -6.8163105100393295 0.9959598630666733 47.83376455307007 37.25516438484192 26.422022581100464 -22.421957105398178 -22.69859343767166 71.01011037826538 -4.336448684334755 -12.03814297914505 -2.097769919782877 -9.769124239683151 0.08445203304290771 5.034390985965729 -5.161347985267639 -8.726801723241806 -14.333450049161911 -7.455953657627106 9.525700360536575 -4.642479345202446 19.375610053539276 2.9950860142707825 4.203222021460533 7.098942250013351 -2.866114005446434 4.720933958888054 8.899371027946472 -1.0987736284732819 3.0075787380337715 -8.42782661318779 4.185146614909172 1.3628216832876205 13.727555125951767 -2.633390463888645 -7.96698085963726 -0.8128685876727104 -5.845733061432838 -7.471384406089783 2.9824206233024597 -2.996867001056671 -11.029327288269997 1.7452768608927727 6.685385853052139 -0.761043531820178 -55.14013409614563 40.4538756608963 -34.74795877933502 26.77018404006958 -17.190113961696625 -57.885568141937256 -4.924249090254307 -11.175790652632713 4.714086279273033 -0.33098191022872925 -2.5196156837046146 9.686615467071533 4.32466272264719 1.403119694441557 -5.453568287193775 -2.9920782521367073 -2.662510871887207 3.4026191756129265 -13.063680231571198 7.831972539424896 -0.3118057921528816 -0.7143512181937695 -3.997563309967518 -6.314264684915543 -5.270653702318668 1.6238901391625404 -0.4104970023036003 2.5977563112974167 2.729780003428459 -5.867242366075516 -4.395164251327515 1.897534802556038 -4.016977474093437 -1.0976015031337738 7.9053571075201035 -5.02057358622551 -5.4172347486019135 -13.389040231704712 -6.653772667050362 -4.077242352068424 10.101405680179596 0.6358619034290314 -39.53350245952606 -38.39243173599243 -40.56589812040329 -32.55770981311798 69.19705510139465 18.52124735713005 -6.306591555476189 -18.67490842938423 -8.744150251150131 -1.0953872557729483 -2.9074381291866302 3.2870176434516907 38.8551664352417 -41.67457312345505 37.81190514564514 5.853774324059486 64.08815503120422 -13.213713616132736 8.42291884124279 -19.237983226776123 14.496763050556183
0.00044768257066607475 60.671302795410156 0.44063892122358084 -26.50211066007614 1.1988681368529797 -2.9266420751810074 -8.81091445684433 14.478772133588791 6.027037650346756 1.1160832643508911 -8.295099511742592 5.794769078493118 -0.10282650589942932 20.89851200580597 4.11955788731575 6.154927387833595 -21.70048177242279 -15.328604578971863 6.286068633198738 -5.071921795606613 5.535064861178398 5.693240761756897 -6.128423810005188 8.848281651735306 1.2124262005090714 -4.1180189698934555 -5.273875370621681 55.167396068573 34.972904920578 32.85481005907059 -24.86231803894043 -21.838612854480743 73.50914597511292 -5.5210355669260025 -15.890449583530426 -2.107302490621805 -14.91227611899376 1.0949407517910004 7.01789528131485 -1.7316502332687378 -2.211337834596634 -9.750075191259384 -6.061451733112335 9.060868173837662 -8.29335205256939 15.028081834316254 -2.7862009406089783 6.982025429606438 3.252568691968918 -4.20068196952343 -1.2567684799432755 9.24748420715332 -1.1862216889858246 -0.5482016131281853 -11.511857360601425 4.54525999724865 -0.5930987745523453 12.162057012319565 -0.09743694216012955 -8.986552879214287 7.587069422006607 -9.16017897427082 -6.356647610664368 0.11004835367202759 -7.220337688922882 -10.032755210995674 2.38442312926054 5.0640226900577545 -5.644160360097885 -51.09765887260437 43.92079174518585 -35.494460463523865 35.861778259277344 -19.018892347812653 -59.03585493564606 -4.768128432333469 -7.606483921408653 6.315102204680443 -0.687919557094574 -4.615735039114952 12.01705813407898 7.748791873455048 0.7288043014705181 -7.21035048365593 2.807117812335491 -3.224889636039734 4.51802384108305 -7.284421026706696 4.261517487466335 -0.3419860079884529 0.3715786524116993 -6.605703458189964 -5.721448212862015 -12.979772686958313 0.7474837079644203 0.5642016604542732 3.7844889611005783 0.6835120171308517 -2.6787181198596954 -2.0937752723693848 0.5787033587694168 -6.991928145289421 0.6303513050079346 9.407903775572777 -3.3430342376232147 -3.689017742872238 -13.667566180229187 -3.4897906333208084 -4.878568388521671 6.611551344394684 1.9228877127170563 -38.56326699256897 -38.90181005001068 -34.69215542078018 -39.79920208454132 69.14152264595032 19.688137024641037 -4.0932004898786545 -13.876267522573471 -6.680147498846054 -0.6501298304647207 -6.121266335248947 7.256075441837311 40.31502306461334 -42.36584812402725 45.317723751068115 9.610846415162086 66.28679394721985 -19.261279553174973 11.358017921447754 -18.665723204612732 22.25919395685196
-0.01583202602341771 61.92707443237305 0.6506614303216338 -28.522178828716278 2.9868073761463165 -6.389137879014015 -6.801245212554932 16.761053055524826 6.704652160406113 0.5276602506637573 -8.861903920769691 6.381955593824387 -2.7798937261104584 19.96912121772766 2.6219303905963898 3.5796312242746353 -22.59088397026062 -13.644327521324158 1.8477127701044083 -4.7214375436306 4.1250865906476974 0.371362566947937 -3.6263301596045494 10.175621062517166 -1.0322340577840805 -5.881756469607353 -3.78501333296299 54.695788621902466 33.72535586357117 31.62827879190445 -25.192047357559204 -21.748925149440765 70.05202531814575 -7.031784430146217 -15.436566174030304 -0.7171886600553989 -14.614851325750351 1.5240190923213959 7.9605817794799805 -1.6005653142929077 -1.1904944479465485 -5.9505437314510345 -8.579069674015045 7.414233237504959 -5.862326547503471 15.124480426311493 -2.4046406149864197 7.314420863986015 3.3489887416362762 -4.200006052851677 -0.9451655298471451 8.02899956703186 -0.5434195697307587 -0.7550106570124626 -12.71521970629692 2.053729221224785 0.4068180173635483 11.50125727057457 -2.107377089560032 -8.836504742503166 8.518718630075455 -7.875784412026405 -4.74933922290802 1.173776239156723 -8.395273983478546 -4.350195005536079 2.499127797782421 3.231891542673111 -7.642320245504379 -50.67350506782532 40.81469714641571 -36.04861557483673 35.81163704395294 -20.544709861278534 -56.13381743431091 -4.356318153440952 -7.772743329405785 5.101877376437187 0.2330973744392395 -4.958789572119713 11.542580723762512 8.376289308071136 -3.9653053879737854 -6.188187450170517 2.074434868991375 -6.42500102519989 4.242695085704327 -6.345079243183136 4.422782622277737 -0.49527961760759354 0.44492097571492195 -7.952354773879051 -4.678433686494827 -14.0462726354599 2.9769572988152504 1.2561177089810371 3.2013820856809616 -0.835055485367775 1.4557890594005585 -2.0017433166503906 1.4117652922868729 -6.1442964524030685 -0.8108331263065338 7.009912356734276 -2.3841057904064655 -2.5387631356716156 -13.1928151845932 -1.8631703406572342 -3.06960079818964 3.833051025867462 4.590685218572617 -36.984583139419556 -36.89897507429123 -32.29592889547348 -39.41453039646149 66.9583010673523 21.185818165540695 -3.7200408428907394 -12.021176666021347 -7.589588016271591 -2.451748251914978 -7.311544865369797 9.608834087848663 40.231837034225464 -41.077878177165985 43.99505138397217 15.2007195353508 64.8028028011322 -22.610694766044617 9.307291433215141 -17.59013593196869 22.53984957933426
